<?xml version="1.0" encoding="UTF-8" standalone="no"?>
<!-- Created with Inkscape (http://www.inkscape.org/) -->

<svg
   width="16"
   height="16"
   viewBox="0 0 16 16"
   version="1.1"
   id="svg1"
   xml:space="preserve"
   xmlns="http://www.w3.org/2000/svg"
   xmlns:svg="http://www.w3.org/2000/svg"><defs
     id="defs1" /><g
     id="layer1"
     style="display:inline"><path
       d="m -2.2053719e-6,7.9826071 q 0,-3.2869574 2.3478267053719,-5.6347842 Q 4.7130426,-3.7997961e-6 8.0173913,-3.7997961e-6 q 3.2869577,0 5.6347837,2.3478266997961 2.347827,2.3478268 2.347827,5.6347842 0,3.3043489 -2.347827,5.6695669 -2.347826,2.347827 -5.6347837,2.347827 -2.1739136,0 -4.0173924,-1.078262 Q 2.1565201,13.843478 1.078259,12 -2.2053719e-6,10.156521 -2.2053719e-6,7.9826071 Z m 2.7130442053719,0 q 0,2.2260879 1.5478265,3.7739139 1.5478265,1.530435 3.7565228,1.530435 2.1913047,0 3.7217397,-1.547826 1.547827,-1.547827 1.547827,-3.7565229 0,-2.191305 -1.547827,-3.7217402 -1.530435,-1.5478265 -3.7217397,-1.5478265 -2.2086963,0 -3.7565228,1.5478265 Q 2.713042,5.7913021 2.713042,7.9826071 Z m 1.3913048,0 q 0,-1.5826091 1.1478264,-2.7130442 1.1652177,-1.1304351 2.7652181,-1.1304351 1.5826091,0 2.7130447,1.1304351 1.130435,1.1304351 1.130435,2.7130442 0,1.6000004 -1.130435,2.7652179 -1.1304356,1.147827 -2.7130447,1.147827 -1.6000004,0 -2.7652181,-1.147827 Q 4.1043468,9.5826075 4.1043468,7.9826071 Z"
       id="text5"
       style="font-size:35.6174px;line-height:1.25;font-family:Popit;-inkscape-font-specification:Popit;text-align:center;letter-spacing:0px;word-spacing:0px;text-anchor:middle;display:inline;stroke-width:1.48406"
       aria-label="@" /></g></svg>
