<?xml version="1.0" encoding="UTF-8" standalone="no"?>
<!-- Created with Inkscape (http://www.inkscape.org/) -->

<svg
   width="16"
   height="16"
   viewBox="0 0 16 16"
   version="1.1"
   id="svg1"
   xml:space="preserve"
   xmlns="http://www.w3.org/2000/svg"
   xmlns:svg="http://www.w3.org/2000/svg"><defs
     id="defs1" /><g
     id="layer1"
     style="display:inline"><path
       d="m -2.2053719e-6,8.0173897 q 0,-2.1739136 1.0782612053719,-4.0173924 Q 2.1565201,2.1565185 3.9999989,1.0782574 5.8434777,-3.7997961e-6 8.0173913,-3.7997961e-6 q 3.2869577,0 5.6347837,2.3652179997961 2.347827,2.3478268 2.347827,5.6521755 0,3.2869573 -2.347827,5.6347843 -2.347826,2.347827 -5.6347837,2.347827 -3.3043487,0 -5.6695668,-2.347827 Q -2.2053719e-6,11.304347 -2.2053719e-6,8.0173897 Z M 3.4260857,11.582608 4.4521729,12.608695 8.0173913,9.0086943 11.58261,12.608695 12.573914,11.582608 8.9739133,8.0173897 12.573914,4.4521713 11.58261,3.4608667 8.0173913,7.0260851 4.4521729,3.4608667 3.4260857,4.4521713 6.9913041,8.0173897 Z"
       id="text2"
       style="font-size:35.6174px;line-height:1.25;font-family:Popit;-inkscape-font-specification:Popit;text-align:center;letter-spacing:0px;word-spacing:0px;text-anchor:middle;display:inline;stroke-width:1.48406"
       aria-label="!" /></g></svg>
