<?xml version="1.0" encoding="UTF-8" standalone="no"?>
<!-- Created with Inkscape (http://www.inkscape.org/) -->

<svg
   width="16"
   height="16"
   viewBox="0 0 16 16"
   version="1.1"
   id="svg1"
   xml:space="preserve"
   xmlns="http://www.w3.org/2000/svg"
   xmlns:svg="http://www.w3.org/2000/svg"><defs
     id="defs1" /><g
     id="g33"
     style="display:inline"><path
       d="M 0.01747308,15.388648 V 5.764201 q 0,-0.2445413 0.17467236,-0.4017464 Q 0.3668178,5.1877823 0.62882635,5.1877823 H 15.371174 q 0.244541,0 0.419213,0.1746723 0.19214,0.1746724 0.19214,0.4017464 v 9.624447 q 0,0.244541 -0.19214,0.436681 -0.192139,0.174672 -0.419213,0.174672 H 0.62882635 q -0.26200855,0 -0.43668091,-0.174672 -0.17467236,-0.19214 -0.17467236,-0.436681 z M 0.64629358,3.4934603 Q 0.24454715,3.2139846 0.24454715,2.8646398 q 0,-0.3493447 0.34934472,-0.3493447 0.17467237,0 0.29694302,0.1746724 0.12227061,0.1572051 0.33187751,0.3318775 0.2096068,0.1746723 0.593886,0.1746723 0.3144103,0 0.4890826,-0.1572051 0.1921396,-0.1572051 0.1921396,-0.3493447 0,-0.3144103 -0.4017464,-0.4017464 L 1.1353762,2.1135487 Q 0.24454715,1.8690074 0.24454715,1.0829818 q 0,-0.54148436 0.4366809,-0.80349291 Q 1.117909,1.3114884e-5 1.7467295,1.3114884e-5 q 0.5414843,0 0.9956324,0.244541305116 0.4716154,0.24454131 0.4716154,0.57641879 0,0.33187749 -0.4017464,0.33187749 -0.1572052,0 -0.4192137,-0.24454131 Q 2.1484759,0.64630085 1.711795,0.64630085 q -0.6462878,0 -0.6462878,0.40174645 0,0.3144102 0.6113533,0.3842792 l 0.6812222,0.1921396 q 1.030567,0.227074 1.030567,0.9956324 0,0.5240171 -0.4192137,0.8384274 -0.4017464,0.296943 -1.1528376,0.296943 -0.7685584,0 -1.17030482,-0.2620086 z M 3.7030599,2.4104917 q 0,-0.6288205 0.4017464,-1.0130997 0.4017465,-0.3842792 1.0655014,-0.3842792 0.6288205,0 1.0130997,0.3493447 0.3842792,0.3493448 0.3842792,0.8209601 0,0.3318775 -0.3144102,0.3318775 H 4.4890855 q 0,0.296943 0.1921396,0.4890826 0.1921396,0.1921396 0.4890826,0.1921396 0.3493448,0 0.5764188,-0.1746723 0.2445413,-0.1921396 0.366812,-0.1921396 0.1222706,0 0.1921396,0.1048034 0.087336,0.087336 0.087336,0.1921396 0,0.296943 -0.3842792,0.4716154 -0.3842792,0.1572051 -0.8384274,0.1572051 -0.7161566,0 -1.1004358,-0.3842792 Q 3.7030597,2.9694433 3.7030599,2.4104917 Z M 4.4890855,2.1135487 H 5.85153 Q 5.8340627,1.8515401 5.6244559,1.6768678 5.4323163,1.5021954 5.1703077,1.5021954 q -0.4890826,0 -0.6812222,0.6113533 z M 7.039302,3.4061242 V 0.40175955 q 0,-0.17467237 0.1048034,-0.27947578 Q 7.2663761,1.3114884e-5 7.4235812,1.3114884e-5 q 0.366812,0 0.366812,0.401746435116 V 3.4061242 q 0,0.3493447 -0.366812,0.3493447 -0.1572051,0 -0.2794758,-0.087336 Q 7.039302,3.5633293 7.039302,3.4061242 Z M 8.2794758,2.4104917 q 0,-0.6288205 0.4017464,-1.0130997 0.4017464,-0.3842792 1.0655014,-0.3842792 0.6113534,0 0.9956324,0.366812 0.401747,0.3493447 0.401747,0.8034928 0,0.3318775 -0.349345,0.3318775 H 9.0829686 q 0,0.6812222 0.7161567,0.6812222 0.3318777,0 0.5414847,-0.1746723 0.209606,-0.1921396 0.31441,-0.1921396 0.122271,0 0.209607,0.1048034 0.104803,0.087336 0.104803,0.1921396 0,0.296943 -0.384279,0.4716154 -0.366812,0.1572051 -0.7860257,0.1572051 -0.7510911,0 -1.1353703,-0.3842792 Q 8.2794758,2.9694433 8.2794758,2.4104917 Z M 9.0829686,2.1135487 H 10.427946 Q 10.410479,1.8515401 10.200872,1.6768678 10.008732,1.5021954 9.7467236,1.5021954 q -0.5414843,0 -0.663755,0.6113533 z m 2.3580774,0.3318775 q 0,-0.663755 0.366811,-1.0480342 0.366812,-0.3842792 1.065502,-0.3842792 0.454148,0 0.768558,0.2270741 0.331878,0.2096068 0.331878,0.4541481 0,0.3144103 -0.349345,0.3144103 -0.139738,0 -0.31441,-0.2096069 -0.157205,-0.2096068 -0.436681,-0.2096068 -0.279476,0 -0.489083,0.2096068 -0.192139,0.2096069 -0.192139,0.6462878 0,0.7510911 0.646287,0.7510911 0.296943,0 0.471616,-0.227074 0.192139,-0.2445413 0.349345,-0.2445413 0.31441,0 0.31441,0.2794757 0,0.2620086 -0.31441,0.5065499 -0.296944,0.2445413 -0.820961,0.2445413 -0.681222,0 -1.048034,-0.3493447 -0.349344,-0.3493448 -0.349344,-0.960698 z m 2.672487,-1.1528376 q 0,-0.2096068 0.296943,-0.2096068 h 0.139738 V 0.64630085 q 0,-0.17467236 0.104803,-0.27947578 0.104803,-0.10480341 0.244541,-0.10480341 0.401747,0 0.401747,0.38427919 V 1.0829818 h 0.244541 q 0.366812,0 0.366812,0.2096068 0,0.2445413 -0.366812,0.2445413 h -0.244541 v 1.4672478 q 0,0.1921396 0.209607,0.1921396 h 0.104803 q 0.296943,0 0.296943,0.2445413 0,0.3144103 -0.576419,0.3144103 -0.786025,0 -0.786025,-0.6288205 V 1.5371299 h -0.139738 q -0.296943,0 -0.296943,-0.2445413 z"
       id="text31"
       style="font-size:35.7729px;line-height:1.25;font-family:Popit;-inkscape-font-specification:Popit;text-align:center;letter-spacing:0px;word-spacing:0px;text-anchor:middle;stroke-width:1.49053"
       aria-label="&amp;" /></g></svg>
