<?xml version="1.0" encoding="UTF-8" standalone="no"?>
<!-- Created with Inkscape (http://www.inkscape.org/) -->

<svg
   width="16"
   height="16"
   viewBox="0 0 16 16"
   version="1.1"
   id="svg1"
   xml:space="preserve"
   xmlns="http://www.w3.org/2000/svg"
   xmlns:svg="http://www.w3.org/2000/svg"><defs
     id="defs1" /><g
     id="layer1"
     style="display:inline"><path
       d="M 2.3478245,13.634783 Q -2.2053719e-6,11.286956 -2.2053719e-6,7.9826071 -2.2053719e-6,4.6782584 2.3478245,2.3478229 4.6956513,-3.7997961e-6 7.9826087,-3.7997961e-6 q 2.1913053,0 4.0347833,1.0782611997961 1.843479,1.0608698 2.904349,2.9043486 1.078261,1.8260875 1.078261,4.0000011 0,2.1739139 -1.078261,4.0173929 -1.06087,1.826087 -2.904349,2.904348 -1.843478,1.06087 -4.0347833,1.06087 -3.2869574,0 -5.6347842,-2.330435 z M 2.8173899,11.373912 H 13.18261 L 7.9826087,2.4347795 Z M 5.3217384,9.9826076 7.9826087,5.2695629 10.730436,9.9826076 Z"
       id="text3"
       style="font-size:35.6174px;line-height:1.25;font-family:Popit;-inkscape-font-specification:Popit;text-align:center;letter-spacing:0px;word-spacing:0px;text-anchor:middle;display:inline;stroke-width:1.48406"
       aria-label="£" /></g></svg>
