<?xml version="1.0" encoding="UTF-8" standalone="no"?>
<!-- Created with Inkscape (http://www.inkscape.org/) -->

<svg
   width="16"
   height="16"
   viewBox="0 0 16 16"
   version="1.1"
   id="svg1"
   xml:space="preserve"
   xmlns="http://www.w3.org/2000/svg"
   xmlns:svg="http://www.w3.org/2000/svg"><defs
     id="defs1" /><g
     id="g33"
     style="display:inline"><path
       d="M 0.39344744,15.440437 V 5.8054701 q 0,-0.3497266 0.2448086,-0.4721309 Q 0.81311932,5.1584759 1.1453596,5.2284212 L 15.256826,10.054648 q 0.349727,0.122404 0.349727,0.577049 0,0.384699 -0.349727,0.507103 L 1.1453596,15.965027 q -0.034973,0 -0.104918,0.01749 -0.0699453,0.01749 -0.10491798,0.01749 -0.052459,0 -0.10491797,-0.01749 -0.0349727,-0.01749 -0.10491797,-0.03497 -0.052459,-0.03497 -0.0874316,-0.05246 -0.2448086,-0.174863 -0.2448086,-0.454644 z M 2.1770529,2.9027396 q 0,-0.3672129 0.3672129,-0.3672129 0.1748633,0 0.4371582,0.3322402 0.2622949,0.3147539 0.7344258,0.3147539 0.6120215,0 0.6120215,-0.4546445 0,-0.2797813 -0.2797813,-0.3672129 L 3.1213146,2.1158548 Q 2.1770529,1.8710462 2.1770529,1.0666751 q 0,-0.52458985 0.4371582,-0.78688478 Q 3.0513693,9.0692192e-6 3.6459045,9.0692192e-6 q 0.5245898,0 0.9617481,0.2448085907808 0.4371582,0.2448086 0.4371582,0.61202149 0,0.33224025 -0.3846993,0.33224025 -0.1224043,0 -0.4021855,-0.26229493 -0.2622949,-0.27978126 -0.6819668,-0.27978126 -0.2622949,0 -0.4196719,0.1224043 -0.1573769,0.10491797 -0.1573769,0.29726759 0,0.2273223 0.5420761,0.4021855 L 4.257926,1.6437239 q 0.9267754,0.1398907 0.9267754,1.0142071 0,0.5071035 -0.3846992,0.8393437 -0.3846993,0.3322403 -1.0841524,0.3322403 -0.6994531,0 -1.119125,-0.2972676 Q 2.1770529,3.2174935 2.1770529,2.9027396 Z M 5.4469963,1.32897 q 0,-0.2622949 0.2448086,-0.2622949 H 5.8316955 V 0.64700321 q 0,-0.36721289 0.3672129,-0.36721289 0.3497266,0 0.3497266,0.36721289 V 1.0666751 h 0.2622949 q 0.3147539,0 0.3147539,0.2622949 0,0.2448086 -0.3147539,0.2448086 H 6.548635 v 1.4688516 q 0,0.1748633 0.2622949,0.1748633 h 0.069945 q 0.2448086,0 0.2448086,0.2622949 0,0.3147539 -0.5420762,0.3147539 -0.7519121,0 -0.7519121,-0.6819668 V 1.5737786 H 5.6918049 q -0.2448086,0 -0.2448086,-0.2448086 z m 1.9234961,1.7136602 q 0,-0.7344258 1.0142071,-0.8568301 L 8.839344,2.1508274 q 0.3322402,-0.069945 0.3322402,-0.2972675 0,-0.2797813 -0.4721308,-0.2797813 -0.2972676,0 -0.5245899,0.209836 -0.2273223,0.1923496 -0.3322402,0.1923496 -0.104918,0 -0.1923496,-0.087432 -0.087432,-0.087432 -0.087432,-0.1748633 0,-0.2622949 0.2972676,-0.4721308 0.3147539,-0.209836 0.8393438,-0.209836 1.1890703,0 1.1890703,0.7169395 v 1.2590156 q 0,0.157377 0.034973,0.3147539 0.034973,0.1398907 0.034973,0.1923496 0,0.104918 -0.104918,0.1923497 -0.1049179,0.087432 -0.2273222,0.087432 -0.4196719,0 -0.4196719,-0.4721309 -0.3322403,0.4721309 -1.0142071,0.4721309 -0.3497265,0 -0.5945351,-0.1923496 Q 7.3704924,3.3923568 7.3704924,3.0426302 Z m 0.7169395,-0.034973 q 0,0.2448086 0.4371582,0.2448086 0.6469941,0 0.6469941,-0.4896172 V 2.4655814 Q 9.1191252,2.500554 8.839344,2.605472 L 8.5945354,2.657931 q -0.5071035,0 -0.5071035,0.3497262 z M 10.483059,3.4098431 V 1.3639427 q 0,-0.3322403 0.367213,-0.3322403 0.314754,0 0.314754,0.3322403 v 0.3147539 q 0.05246,-0.2622949 0.209836,-0.4546446 0.174863,-0.1923496 0.402185,-0.1923496 0.437158,0 0.437158,0.3672129 0,0.3497266 -0.367213,0.3497266 h -0.104918 q -0.507103,0 -0.507103,0.7868848 v 0.8743164 q 0,0.3846992 -0.349727,0.3846992 -0.402185,0 -0.402185,-0.3846992 z M 12.249178,1.32897 q 0,-0.2622949 0.279781,-0.2622949 H 12.66885 V 0.64700321 q 0,-0.36721289 0.33224,-0.36721289 0.349727,0 0.349727,0.36721289 V 1.0666751 h 0.262295 q 0.314754,0 0.314754,0.2622949 0,0.2448086 -0.314754,0.2448086 h -0.262295 v 1.4688516 q 0,0.1748633 0.262295,0.1748633 h 0.06995 q 0.244809,0 0.244809,0.2622949 0,0.3147539 -0.542077,0.3147539 -0.716939,0 -0.716939,-0.6819668 V 1.5737786 h -0.139891 q -0.279781,0 -0.279781,-0.2448086 z"
       id="text33"
       style="font-size:35.812px;line-height:1.25;font-family:Popit;-inkscape-font-specification:Popit;text-align:center;letter-spacing:0px;word-spacing:0px;text-anchor:middle;display:inline;stroke-width:1.49216"
       aria-label="*" /></g></svg>
