<?xml version="1.0" encoding="UTF-8" standalone="no"?>
<!-- Created with Inkscape (http://www.inkscape.org/) -->

<svg
   width="16"
   height="16"
   viewBox="0 0 16 16"
   version="1.1"
   id="svg1"
   xml:space="preserve"
   xmlns="http://www.w3.org/2000/svg"
   xmlns:svg="http://www.w3.org/2000/svg"><defs
     id="defs1" /><g
     id="g29"
     style="display:inline"><path
       d="m 0.39215461,5.5424807 q 0,-2.1089331 2.26579589,-3.8169946 Q 4.9411756,-4.5858324e-6 8.0087146,-4.5858324e-6 q 1.5337695,0 2.9455344,0.4880175758324 1.429195,0.47058837 2.440088,1.25490231 1.010894,0.7668848 1.603486,1.7777783 0.610022,0.9934644 0.610022,2.0217871 0,1.3071899 -1.010893,2.4400879 -1.010894,1.1154687 -2.701526,1.7603491 v 3.7124193 q 0,1.063181 -1.132898,1.812637 Q 9.6296301,16 8.0087146,16 6.3877991,16 5.2374719,15.267974 4.104574,14.518518 4.104574,13.455337 V 9.7429177 Q 2.4313709,9.0806081 1.4030482,7.9651394 0.39215461,6.8496706 0.39215461,5.5424807 Z M 5.2200427,8.366011 q 0,0.9934643 0.9934644,0.9934643 h 3.6078442 q 0.3660127,0 0.6100217,-0.1917212 0.244009,-0.1917212 0.244009,-0.5228759 0,-0.3311548 -0.244009,-0.522876 Q 10.187364,7.930281 9.8213513,7.930281 H 6.9629627 V 2.5446585 q 0,-0.3660132 -0.2440088,-0.5925928 -0.2440088,-0.2265796 -0.6448804,-0.2265796 -0.3834424,0 -0.6274512,0.2440088 -0.2265796,0.2265796 -0.2265796,0.5751636 z"
       id="text30"
       style="font-size:35.695px;line-height:1.25;font-family:Popit;-inkscape-font-specification:Popit;text-align:center;letter-spacing:0px;word-spacing:0px;text-anchor:middle;display:inline;stroke-width:1.48729"
       aria-label="%" /></g></svg>
